<?xml version="1.0" standalone="no"?>
<!DOCTYPE svg PUBLIC "-//W3C//DTD SVG 20010904//EN"
 "http://www.w3.org/TR/2001/REC-SVG-20010904/DTD/svg10.dtd">
<svg version="1.0" xmlns="http://www.w3.org/2000/svg"
 width="346.000000pt" height="90.000000pt" viewBox="0 0 346.000000 90.000000"
 preserveAspectRatio="xMidYMid meet">
<metadata>
Created by potrace 1.16, written by Peter Selinger 2001-2019
</metadata>
<g transform="translate(0.000000,90.000000) scale(0.100000,-0.100000)"
fill="#000000" stroke="none">
<path d="M295 882 c-120 -41 -204 -116 -259 -232 -29 -61 -31 -72 -31 -180 0
-111 1 -118 34 -184 46 -94 131 -175 240 -229 74 -37 93 -42 151 -42 56 0 77
6 144 38 204 101 319 295 288 483 -27 162 -136 292 -290 343 -78 27 -205 28
-277 3z m411 -306 c71 -71 24 -176 -79 -176 -19 0 -70 7 -113 16 -71 15 -84
15 -158 0 -45 -9 -100 -16 -123 -16 -80 0 -129 87 -89 159 26 47 45 50 295 51
l233 0 34 -34z"/>
<path d="M1026 627 c-14 -11 -16 -33 -14 -177 l3 -165 30 0 30 0 3 73 3 72 74
0 75 0 0 -56 c0 -63 13 -94 38 -94 37 0 42 19 42 176 0 162 -7 188 -49 177
-23 -6 -31 -31 -31 -95 l0 -48 -75 0 -75 0 0 65 c0 52 -3 66 -19 74 -13 7 -23
7 -35 -2z"/>
<path d="M1687 629 c-13 -8 -17 -24 -17 -75 l0 -65 -22 15 c-61 43 -158 -20
-158 -102 0 -87 82 -152 150 -119 17 9 32 11 36 6 9 -15 51 -10 58 7 3 9 6 85
6 169 0 138 -2 155 -18 164 -11 6 -24 6 -35 0z"/>
<path d="M2816 624 c-13 -13 -16 -42 -16 -160 0 -151 7 -184 40 -184 26 0 40
29 40 84 l0 46 60 0 c33 0 76 6 95 14 91 38 83 179 -12 205 -60 17 -189 14
-207 -5z"/>
<path d="M3155 624 c-13 -13 -15 -40 -13 -171 3 -136 5 -157 21 -167 12 -8 22
-8 35 0 13 9 18 30 22 104 l5 93 80 -99 c126 -155 145 -145 145 77 0 121 -3
150 -16 163 -18 18 -23 19 -44 6 -11 -7 -16 -35 -20 -106 l-5 -96 -70 88
c-106 134 -110 137 -140 108z"/>
<path d="M2701 608 c-5 -13 -28 -63 -51 -113 l-42 -90 -19 38 c-15 29 -25 37
-41 35 -43 -6 -44 -30 -3 -117 35 -74 41 -82 64 -79 22 3 34 22 93 148 74 158
80 193 36 198 -22 3 -30 -2 -37 -20z"/>
<path d="M1839 497 c-123 -82 -5 -276 128 -211 23 12 39 27 41 40 4 28 -24 38
-51 19 -28 -20 -47 -19 -77 3 -25 17 -24 17 55 22 73 5 80 7 83 27 5 36 -26
90 -63 107 -45 22 -76 20 -116 -7z"/>
<path d="M1385 497 c-3 -7 -4 -58 -3 -113 l3 -99 27 -3 c35 -4 40 14 36 133
-3 90 -3 90 -31 93 -16 2 -29 -2 -32 -11z"/>
</g>
</svg>
